<?xml version="1.0" encoding="iso-8859-1"?>
<!-- Generator: Adobe Illustrator 19.0.0, SVG Export Plug-In . SVG Version: 6.00 Build 0)  -->
<svg fill="#F59A44" version="1.1" id="Capa_1" xmlns="http://www.w3.org/2000/svg" xmlns:xlink="http://www.w3.org/1999/xlink" x="0px" y="0px"
	 height="312pt" width="312pt" viewBox="0 0 512 512" style="enable-background:new 0 0 512 512;" xml:space="preserve">
<g>
	<g>
		<polygon points="15.065,33.834 15.065,512 165.991,484.674 165.991,3.509 		"/>
	</g>
</g>
<g>
	<g>
		<path d="M384.645,262.736c-14.386-14.322-33.842-21.927-53.519-21.927c-10.401,0-20.865,2.125-30.675,6.507
			c-8.338,3.719-15.884,8.908-22.437,15.426c-14.21,14.155-22.039,32.979-22.039,52.997s7.83,38.844,22.047,53.006
			c6.533,6.506,14.078,11.693,22.423,15.415c28.376,12.684,62.208,6.483,84.201-15.417c14.222-14.162,22.053-32.986,22.053-53.004
			S398.868,276.897,384.645,262.736z"/>
	</g>
</g>
<g>
	<g>
		<path d="M346.29,28.685v183.142c1.099,0.157,2.198,0.321,3.295,0.513c21.378,3.729,40.82,13.807,56.225,29.141
			c19.917,19.835,30.885,46.206,30.885,74.258c0,23.019-7.39,44.902-21.042,62.973l81.281,81.415V0L346.29,28.685z"/>
	</g>
</g>
<g>
	<g>
		<path d="M394.378,399.856c-13.165,9.83-28.405,16.431-44.792,19.291c-1.097,0.192-2.197,0.345-3.295,0.502v89.423l131.557-25.61
			L394.378,399.856z"/>
	</g>
</g>
<g>
	<g>
		<path d="M288.227,219.924c9.005-4.022,18.442-6.72,28.068-8.099V28.399L195.986,3.574v481.429l120.309,24.006v-89.343
			c-9.629-1.381-19.067-4.09-28.078-8.118c-11.679-5.209-22.233-12.462-31.362-21.551c-19.91-19.835-30.875-46.205-30.875-74.259
			c0-28.052,10.965-54.423,30.874-74.256C266.005,232.381,276.559,225.13,288.227,219.924z"/>
	</g>
</g>
<g>
</g>
<g>
</g>
<g>
</g>
<g>
</g>
<g>
</g>
<g>
</g>
<g>
</g>
<g>
</g>
<g>
</g>
<g>
</g>
<g>
</g>
<g>
</g>
<g>
</g>
<g>
</g>
<g>
</g>
</svg>
